<?xml version="1.0" standalone="no"?>
<!DOCTYPE svg PUBLIC "-//W3C//DTD SVG 20010904//EN"
 "http://www.w3.org/TR/2001/REC-SVG-20010904/DTD/svg10.dtd">
<svg version="1.0" xmlns="http://www.w3.org/2000/svg"
 width="700.000000pt" height="700.000000pt" viewBox="0 0 700.000000 700.000000"
 preserveAspectRatio="xMidYMid meet">
<metadata>
Created by potrace 1.14, written by Peter Selinger 2001-2017
</metadata>
<g transform="translate(0.000000,700.000000) scale(0.100000,-0.100000)"
fill="#000000" stroke="none">
<path d="M2930 6973 c-88 -44 -137 -132 -127 -230 19 -186 236 -276 376 -156
89 76 111 190 56 291 -59 109 -193 151 -305 95z"/>
<path d="M4284 6890 c-148 -74 -180 -264 -63 -378 92 -90 233 -89 323 2 118
117 85 308 -65 376 -59 26 -141 26 -195 0z"/>
<path d="M3462 6656 c-100 -36 -148 -153 -103 -252 51 -111 194 -140 289 -58
153 130 3 379 -186 310z"/>
<path d="M1801 6590 c-90 -30 -150 -108 -156 -203 -4 -61 7 -99 42 -149 86
-125 268 -132 368 -15 121 141 28 365 -158 381 -25 2 -66 -4 -96 -14z"/>
<path d="M2348 6447 c-65 -39 -97 -97 -93 -167 7 -137 152 -219 275 -155 48
25 99 109 95 155 -1 8 -3 26 -3 40 -3 42 -53 109 -98 130 -56 27 -129 26 -176
-3z"/>
<path d="M4667 6400 c-140 -43 -175 -224 -63 -322 66 -58 179 -53 248 11 56
53 70 159 28 226 -43 70 -139 108 -213 85z"/>
<path d="M5431 6367 c-215 -44 -252 -338 -55 -437 153 -76 336 40 335 212 0
145 -137 255 -280 225z"/>
<path d="M3830 6363 c-52 -7 -69 -14 -100 -39 -43 -37 -63 -80 -63 -139 0
-105 72 -175 180 -175 146 0 227 180 131 291 -37 42 -99 68 -148 62z"/>
<path d="M2785 6294 c-177 -60 -150 -324 35 -342 65 -6 93 2 136 40 147 129
12 365 -171 302z"/>
<path d="M3092 5984 c-153 -78 -101 -313 69 -316 135 -2 221 155 142 260 -49
66 -143 91 -211 56z"/>
<path d="M4807 5980 c-46 -26 -84 -82 -92 -139 -5 -34 -1 -54 19 -95 79 -162
316 -118 334 62 5 60 -19 114 -71 155 -49 40 -133 48 -190 17z"/>
<path d="M4064 5925 c-83 -38 -123 -150 -82 -230 65 -125 249 -117 301 14 19
45 15 110 -9 149 -38 66 -141 99 -210 67z"/>
<path d="M1764 5800 c-148 -73 -124 -292 37 -330 113 -27 219 54 219 168 0
136 -135 222 -256 162z"/>
<path d="M1313 5785 c-106 -64 -118 -219 -23 -298 59 -50 133 -59 200 -24 110
55 137 191 58 288 -51 63 -161 78 -235 34z"/>
<path d="M5554 5761 c-128 -57 -151 -232 -42 -315 129 -96 298 -11 298 150 0
126 -141 216 -256 165z"/>
<path d="M3460 5748 c-125 -62 -80 -248 59 -248 119 0 175 147 87 227 -20 18
-44 33 -53 34 -10 0 -26 2 -35 4 -9 2 -35 -6 -58 -17z"/>
<path d="M829 5709 c-161 -25 -246 -190 -174 -336 105 -210 416 -146 438 90
13 142 -122 268 -264 246z"/>
<path d="M2275 5706 c-107 -48 -134 -181 -56 -270 61 -69 192 -64 250 10 105
134 -40 329 -194 260z"/>
<path d="M2690 5613 c-97 -39 -107 -179 -17 -233 85 -52 197 9 199 108 1 98
-92 162 -182 125z"/>
<path d="M4311 5562 c-92 -50 -92 -185 0 -233 62 -31 130 -14 170 42 77 108
-53 255 -170 191z"/>
<path d="M4890 5553 c-57 -16 -93 -40 -116 -79 -45 -77 -28 -167 42 -220 32
-25 47 -29 99 -29 51 0 67 4 97 27 116 88 74 271 -69 297 -21 4 -45 6 -53 4z"/>
<path d="M3695 5536 c-80 -34 -101 -138 -43 -203 68 -75 195 -40 216 60 21
100 -80 183 -173 143z"/>
<path d="M2979 5492 c-39 -20 -79 -75 -79 -109 0 -41 28 -92 62 -113 116 -70
247 63 174 175 -35 53 -103 74 -157 47z"/>
<path d="M6296 5344 c-155 -56 -208 -255 -100 -374 52 -58 115 -84 189 -77 90
7 149 44 189 116 83 153 -17 336 -188 346 -28 2 -69 -3 -90 -11z"/>
<path d="M5596 5329 c-106 -29 -161 -146 -116 -246 62 -138 267 -135 325 5 57
136 -67 279 -209 241z"/>
<path d="M3230 5283 c-30 -6 -57 -29 -76 -65 -39 -74 20 -168 106 -168 97 0
153 106 98 186 -19 28 -69 56 -94 53 -5 -1 -20 -4 -34 -6z"/>
<path d="M4453 5283 c-13 -2 -36 -21 -53 -41 -57 -69 -33 -168 50 -202 44 -18
98 -4 137 35 28 28 33 40 33 80 0 91 -73 147 -167 128z"/>
<path d="M3923 5242 c-36 -5 -81 -55 -89 -96 -17 -92 75 -168 160 -132 72 31
97 112 54 176 -24 36 -81 59 -125 52z"/>
<path d="M1963 5144 c-139 -48 -104 -254 42 -254 121 0 178 143 90 226 -40 37
-80 46 -132 28z"/>
<path d="M2252 5140 c-61 -38 -81 -125 -41 -182 72 -100 229 -52 231 71 1 97
-108 160 -190 111z"/>
<path d="M4985 5123 c-122 -30 -128 -211 -7 -253 37 -13 47 -13 84 0 131 47
112 241 -25 254 -18 2 -41 1 -52 -1z"/>
<path d="M3474 5110 c-57 -23 -71 -99 -28 -149 67 -80 194 3 154 100 -20 46
-78 69 -126 49z"/>
<path d="M2631 5077 c-92 -32 -104 -169 -19 -213 88 -46 188 22 175 118 -6 46
-29 75 -74 94 -38 16 -38 16 -82 1z"/>
<path d="M1550 5069 c-124 -52 -136 -232 -20 -298 107 -60 236 6 248 127 9 97
-55 173 -151 179 -29 1 -63 -2 -77 -8z"/>
<path d="M1101 5052 c-51 -26 -92 -82 -98 -136 -6 -54 16 -122 50 -154 49 -46
133 -61 197 -34 68 28 115 115 104 192 -17 113 -151 183 -253 132z"/>
<path d="M2913 5004 c-93 -47 -46 -185 59 -171 48 6 77 39 78 89 0 72 -71 115
-137 82z"/>
<path d="M4090 4979 c-62 -24 -80 -106 -34 -153 15 -14 33 -27 40 -27 8 -1 20
-2 27 -3 6 -1 27 5 44 13 57 25 67 106 20 149 -28 25 -65 33 -97 21z"/>
<path d="M3654 4959 c-63 -17 -88 -81 -54 -137 35 -58 124 -53 155 9 36 68
-28 148 -101 128z"/>
<path d="M4465 4955 c-86 -36 -98 -150 -22 -202 86 -59 198 7 184 109 -11 79
-89 125 -162 93z"/>
<path d="M3102 4908 c-30 -33 -36 -70 -18 -107 26 -49 68 -63 121 -39 27 12
53 52 49 76 -1 6 -2 19 -3 27 0 9 -12 27 -26 40 -32 33 -93 34 -123 3z"/>
<path d="M702 4890 c-74 -33 -120 -120 -107 -201 9 -50 54 -111 97 -132 128
-61 269 24 271 162 1 134 -139 225 -261 171z"/>
<path d="M5485 4813 c-69 -36 -97 -81 -97 -155 2 -147 176 -218 281 -116 57
56 65 146 19 214 -41 61 -141 89 -203 57z"/>
<path d="M4962 4790 c-55 -34 -75 -109 -43 -168 31 -58 123 -82 177 -47 31 20
64 73 64 103 0 69 -62 132 -130 132 -19 0 -50 -9 -68 -20z"/>
<path d="M4149 4750 c-71 -71 3 -184 96 -146 90 38 68 162 -31 171 -30 3 -42
-2 -65 -25z"/>
<path d="M6245 4741 c-126 -31 -183 -179 -109 -284 106 -149 336 -76 336 107
0 23 -5 52 -10 66 -17 44 -78 97 -126 109 -49 12 -48 12 -91 2z"/>
<path d="M2612 4673 c-91 -44 -42 -188 58 -168 34 7 68 44 74 83 3 26 -1 39
-22 62 -33 36 -68 43 -110 23z"/>
<path d="M2373 4658 c-45 -50 -47 -95 -7 -139 37 -41 130 -28 150 20 20 52 5
109 -35 131 -34 18 -86 12 -108 -12z"/>
<path d="M4566 4659 c-88 -24 -100 -136 -20 -174 43 -20 77 -14 110 22 60 65
-5 175 -90 152z"/>
<path d="M2076 4600 c-60 -53 -55 -141 12 -189 74 -52 182 6 182 99 0 103
-116 158 -194 90z"/>
<path d="M252 4605 c-62 -19 -106 -57 -136 -117 -61 -122 -13 -260 112 -318
38 -18 59 -21 107 -17 69 5 106 21 151 66 139 137 51 380 -144 395 -26 2 -66
-2 -90 -9z"/>
<path d="M1784 4611 c-53 -23 -87 -107 -64 -160 36 -88 150 -111 212 -42 73
82 28 200 -79 207 -26 2 -58 0 -69 -5z"/>
<path d="M1515 4498 c-85 -30 -118 -128 -69 -203 18 -28 72 -55 109 -55 39 0
91 27 111 58 67 102 -38 240 -151 200z"/>
<path d="M4903 4429 c-105 -69 -44 -232 80 -216 48 7 84 39 97 88 28 102 -89
186 -177 128z"/>
<path d="M4549 4425 c-76 -41 -49 -155 39 -169 43 -6 89 34 96 82 9 67 -74
120 -135 87z"/>
<path d="M5423 4370 c-133 -81 -35 -285 113 -234 45 15 70 42 83 90 31 113
-95 206 -196 144z"/>
<path d="M6053 4320 c-123 -55 -139 -233 -28 -309 139 -95 324 44 270 203 -34
99 -148 149 -242 106z"/>
<path d="M1168 4287 c-35 -13 -86 -67 -99 -105 -46 -139 109 -265 242 -197 37
20 77 80 83 125 5 41 -14 102 -41 132 -41 47 -125 67 -185 45z"/>
<path d="M2250 4270 c-49 -53 -25 -132 44 -145 79 -15 135 57 100 127 -29 57
-99 66 -144 18z"/>
<path d="M2075 4211 c-30 -13 -56 -45 -57 -72 -2 -46 2 -58 27 -84 35 -34 89
-34 128 -1 38 33 41 97 6 132 -27 26 -74 38 -104 25z"/>
<path d="M6659 4172 c-64 -33 -115 -101 -125 -167 -18 -126 72 -249 199 -269
90 -14 196 41 238 123 103 205 -110 418 -312 313z"/>
<path d="M4882 4125 c-56 -24 -68 -94 -26 -144 49 -58 146 -31 160 44 8 43
-19 91 -59 105 -37 12 -35 12 -75 -5z"/>
<path d="M5310 4078 c-112 -68 -53 -245 78 -233 66 6 113 57 114 124 1 99
-107 161 -192 109z"/>
<path d="M1819 4056 c-82 -47 -80 -170 5 -210 45 -21 74 -20 113 4 71 43 78
137 15 194 -28 24 -99 31 -133 12z"/>
<path d="M745 4007 c-45 -21 -94 -76 -102 -116 -10 -52 -10 -52 3 -100 28 -98
130 -149 229 -116 136 47 159 232 39 314 -43 29 -125 38 -169 18z"/>
<path d="M5770 3989 c-125 -50 -136 -232 -18 -299 125 -70 268 33 245 176 -16
98 -132 161 -227 123z"/>
<path d="M4791 3909 c-59 -36 -47 -134 20 -158 37 -13 91 6 108 37 30 56 -8
134 -67 138 -16 1 -44 -6 -61 -17z"/>
<path d="M1561 3869 c-49 -10 -84 -40 -99 -85 -45 -133 130 -229 217 -119 29
38 36 70 22 114 -19 63 -80 103 -140 90z"/>
<path d="M5135 3852 c-134 -45 -102 -232 39 -232 79 0 138 99 102 169 -27 51
-91 80 -141 63z"/>
<path d="M2095 3760 c-27 -10 -44 -32 -55 -69 -7 -24 -4 -37 13 -62 29 -43 65
-54 111 -35 42 17 60 55 51 103 -9 50 -72 83 -120 63z"/>
<path d="M443 3695 c-17 -7 -45 -28 -62 -46 -134 -140 26 -369 206 -294 74 31
115 95 115 178 -1 124 -143 213 -259 162z"/>
<path d="M6400 3638 c-25 -13 -57 -41 -73 -63 -24 -36 -27 -47 -25 -106 4 -78
34 -126 98 -159 148 -75 313 72 257 228 -38 104 -157 150 -257 100z"/>
<path d="M1314 3640 c-27 -11 -74 -67 -75 -91 -1 -10 -2 -25 -3 -31 -3 -18 20
-76 36 -92 55 -55 158 -50 202 11 27 36 32 102 12 142 -31 58 -109 87 -172 61z"/>
<path d="M5595 3609 c-79 -22 -120 -127 -76 -196 47 -75 149 -84 208 -19 18
20 33 44 34 53 0 10 2 26 4 35 2 9 -6 35 -17 58 -29 59 -90 86 -153 69z"/>
<path d="M1934 3599 c-56 -28 -66 -114 -18 -156 58 -52 154 -7 154 72 0 66
-76 112 -136 84z"/>
<path d="M4959 3551 c-40 -41 -40 -92 0 -130 48 -45 118 -35 147 22 50 96 -70
184 -147 108z"/>
<path d="M4823 3400 c-59 -35 -54 -123 8 -155 68 -36 148 28 128 101 -17 63
-81 88 -136 54z"/>
<path d="M5390 3377 c-101 -26 -130 -139 -55 -214 27 -27 41 -33 77 -33 115 0
176 122 103 208 -30 36 -79 51 -125 39z"/>
<path d="M1775 3369 c-84 -42 -78 -178 10 -215 43 -18 59 -18 99 1 84 40 88
168 6 210 -33 17 -85 19 -115 4z"/>
<path d="M1131 3329 c-70 -15 -121 -74 -129 -147 -5 -61 17 -113 66 -150 47
-36 145 -39 189 -6 49 36 73 82 73 137 0 109 -94 188 -199 166z"/>
<path d="M6145 3330 c-80 -18 -127 -75 -133 -159 -9 -118 78 -202 193 -188
115 12 185 123 148 232 -30 87 -118 136 -208 115z"/>
<path d="M180 3260 c-73 -21 -125 -64 -156 -130 -95 -198 121 -404 317 -302
165 85 169 318 7 407 -48 26 -124 38 -168 25z"/>
<path d="M2123 3245 c-85 -37 -64 -161 29 -170 51 -5 98 37 98 88 0 33 -36 87
-59 87 -5 0 -15 2 -23 5 -7 2 -27 -2 -45 -10z"/>
<path d="M5073 3155 c-109 -47 -81 -209 39 -222 92 -10 156 79 118 165 -29 65
-89 87 -157 57z"/>
<path d="M1561 3139 c-41 -25 -62 -59 -64 -107 -1 -46 21 -85 66 -112 109 -67
235 66 167 177 -10 17 -29 37 -41 43 -36 20 -94 20 -128 -1z"/>
<path d="M2017 3030 c-84 -67 -3 -198 96 -156 62 26 76 92 31 145 -32 38 -87
43 -127 11z"/>
<path d="M5703 3020 c-168 -75 -105 -325 79 -315 138 7 208 174 115 273 -50
54 -129 71 -194 42z"/>
<path d="M820 3014 c-47 -19 -90 -59 -108 -102 -81 -194 177 -343 304 -176 58
75 37 200 -41 253 -36 24 -121 38 -155 25z"/>
<path d="M4844 2960 c-27 -11 -53 -66 -48 -99 13 -72 108 -102 159 -50 77 77
-8 191 -111 149z"/>
<path d="M1479 2870 c-48 -13 -71 -32 -88 -71 -40 -89 8 -176 104 -186 105
-12 176 91 129 190 -25 52 -89 82 -145 67z"/>
<path d="M4628 2856 c-16 -14 -29 -32 -29 -41 -1 -8 -2 -21 -3 -27 -3 -21 23
-67 43 -78 33 -17 78 -11 108 14 22 19 28 32 28 65 0 51 -27 81 -81 88 -32 4
-44 0 -66 -21z"/>
<path d="M6597 2836 c-153 -55 -200 -254 -88 -380 29 -33 95 -65 145 -69 141
-13 256 92 256 232 -1 162 -159 271 -313 217z"/>
<path d="M1981 2777 c-82 -42 -87 -159 -9 -207 41 -25 73 -25 118 -1 41 21 64
61 62 108 -3 84 -97 139 -171 100z"/>
<path d="M5385 2744 c-68 -34 -93 -124 -51 -186 61 -92 202 -75 236 28 37 112
-79 212 -185 158z"/>
<path d="M2362 2730 c-58 -36 -63 -95 -12 -142 17 -16 39 -28 51 -28 54 0 105
57 95 106 -7 33 -29 64 -51 70 -11 3 -27 7 -35 10 -8 2 -30 -5 -48 -16z"/>
<path d="M674 2620 c-83 -18 -136 -81 -142 -169 -5 -64 9 -102 54 -146 97 -97
268 -49 304 86 36 133 -82 259 -216 229z"/>
<path d="M5076 2598 c-31 -28 -38 -41 -41 -79 -7 -87 56 -146 144 -136 154 17
137 247 -19 247 -38 0 -53 -6 -84 -32z"/>
<path d="M4794 2594 c-107 -53 -69 -224 51 -224 122 0 166 157 62 220 -38 24
-71 25 -113 4z"/>
<path d="M2350 2500 c-83 -78 20 -208 115 -146 51 33 58 91 17 137 -39 44 -91
47 -132 9z"/>
<path d="M1392 2497 c-102 -39 -142 -163 -80 -252 40 -59 107 -84 177 -65 79
21 123 80 123 162 0 112 -116 194 -220 155z"/>
<path d="M4525 2499 c-75 -38 -61 -159 19 -174 67 -13 116 23 116 86 0 69 -76
118 -135 88z"/>
<path d="M4287 2470 c-72 -64 -9 -176 85 -150 79 22 87 139 11 168 -42 16 -63
12 -96 -18z"/>
<path d="M6182 2460 c-139 -32 -193 -205 -94 -307 125 -128 331 -33 317 146
-9 104 -119 184 -223 161z"/>
<path d="M1942 2439 c-108 -22 -134 -171 -40 -229 130 -79 264 91 153 196 -38
35 -65 43 -113 33z"/>
<path d="M2747 2394 c-52 -28 -63 -94 -23 -141 34 -39 98 -39 132 0 37 43 30
104 -14 133 -35 23 -62 25 -95 8z"/>
<path d="M5745 2265 c-68 -34 -98 -82 -99 -156 0 -73 33 -127 96 -158 95 -46
190 -12 246 86 33 61 -1 175 -65 217 -58 38 -117 42 -178 11z"/>
<path d="M2424 2251 c-61 -37 -69 -133 -16 -183 57 -54 141 -43 182 25 65 106
-59 223 -166 158z"/>
<path d="M5341 2244 c-132 -39 -165 -207 -56 -290 109 -83 267 -5 267 132 0
111 -105 189 -211 158z"/>
<path d="M3789 2235 c-63 -34 -53 -144 16 -161 99 -25 162 75 94 147 -30 32
-68 37 -110 14z"/>
<path d="M3283 2210 c-45 -18 -61 -81 -33 -127 44 -74 155 -51 164 34 9 73
-60 121 -131 93z"/>
<path d="M2844 2200 c-61 -23 -79 -110 -32 -156 76 -76 192 10 147 109 -18 39
-74 62 -115 47z"/>
<path d="M3988 2153 c-65 -40 -43 -151 33 -168 42 -9 83 10 104 49 15 28 16
38 6 68 -21 63 -86 86 -143 51z"/>
<path d="M4264 2131 c-74 -45 -69 -161 10 -203 103 -55 221 69 157 166 -38 57
-109 73 -167 37z"/>
<path d="M1925 2126 c-120 -54 -91 -239 40 -251 46 -4 111 28 129 64 60 115
-53 239 -169 187z"/>
<path d="M538 2092 c-115 -53 -168 -173 -128 -291 61 -180 297 -212 409 -57
28 39 36 61 39 105 6 84 -12 136 -66 190 -70 70 -171 91 -254 53z"/>
<path d="M4928 2094 c-56 -30 -80 -111 -52 -170 47 -99 191 -98 238 0 54 115
-73 232 -186 170z"/>
<path d="M4640 2089 c-97 -39 -111 -168 -25 -225 84 -55 195 7 195 109 0 48
-31 94 -76 113 -38 16 -59 17 -94 3z"/>
<path d="M3434 2055 c-28 -19 -48 -68 -40 -98 11 -46 42 -70 92 -71 38 -1 50
4 70 27 51 60 11 157 -65 157 -20 0 -46 -7 -57 -15z"/>
<path d="M1290 2009 c-36 -15 -80 -59 -96 -98 -20 -47 -18 -97 6 -146 78 -161
319 -115 334 63 9 103 -61 183 -162 189 -32 1 -68 -2 -82 -8z"/>
<path d="M3010 1989 c-62 -25 -90 -82 -73 -149 26 -98 180 -108 219 -15 19 46
18 74 -6 112 -30 49 -89 71 -140 52z"/>
<path d="M2455 1956 c-47 -21 -67 -51 -73 -106 -4 -43 -1 -55 22 -84 75 -98
226 -51 226 71 0 95 -91 157 -175 119z"/>
<path d="M3678 1934 c-70 -37 -76 -150 -12 -198 63 -45 150 -21 180 51 45 106
-67 203 -168 147z"/>
<path d="M2012 1763 c-18 -9 -45 -32 -60 -51 -36 -47 -39 -145 -6 -188 102
-138 308 -74 306 95 -2 119 -132 198 -240 144z"/>
<path d="M6072 1744 c-165 -50 -221 -264 -100 -384 91 -92 247 -93 333 -4 166
174 -3 457 -233 388z"/>
<path d="M3903 1730 c-98 -59 -70 -205 44 -230 59 -14 117 18 139 77 16 41 16
50 3 86 -27 78 -116 110 -186 67z"/>
<path d="M3205 1696 c-42 -18 -62 -44 -73 -92 -18 -81 42 -150 129 -147 43 1
55 6 85 37 18 19 34 45 35 58 4 72 -13 107 -64 138 -37 23 -70 25 -112 6z"/>
<path d="M2574 1676 c-91 -40 -103 -169 -22 -230 36 -25 112 -27 150 -2 80 53
73 183 -13 226 -44 23 -72 24 -115 6z"/>
<path d="M4189 1617 c-58 -39 -77 -102 -49 -163 42 -93 172 -104 228 -19 77
119 -62 261 -179 182z"/>
<path d="M4621 1609 c-125 -26 -168 -181 -78 -277 51 -53 123 -65 191 -32 141
68 113 282 -40 309 -22 4 -54 4 -73 0z"/>
<path d="M1328 1590 c-81 -23 -130 -83 -136 -169 -6 -80 27 -139 95 -174 96
-50 209 -11 254 88 43 94 -1 208 -96 243 -43 16 -86 20 -117 12z"/>
<path d="M5514 1541 c-70 -32 -114 -109 -106 -186 10 -100 88 -169 189 -167
74 2 131 43 163 116 31 70 18 138 -39 200 -49 53 -138 69 -207 37z"/>
<path d="M5089 1523 c-66 -27 -109 -92 -109 -162 0 -156 180 -238 296 -135
112 100 45 300 -103 309 -28 1 -65 -4 -84 -12z"/>
<path d="M3413 1481 c-75 -47 -84 -149 -19 -208 48 -44 104 -48 160 -13 48 29
72 98 54 151 -26 75 -128 112 -195 70z"/>
<path d="M2815 1385 c-128 -45 -152 -217 -41 -293 108 -74 251 -5 261 127 9
117 -107 204 -220 166z"/>
<path d="M2032 1338 c-65 -31 -97 -86 -97 -162 0 -48 5 -69 23 -93 35 -49 77
-74 135 -80 113 -12 199 73 192 189 -8 122 -142 199 -253 146z"/>
<path d="M3805 1330 c-120 -26 -178 -165 -108 -258 39 -52 70 -67 137 -67 53
0 68 4 98 27 113 87 76 267 -63 297 -19 4 -47 4 -64 1z"/>
<path d="M1472 1089 c-138 -26 -223 -190 -164 -320 89 -200 374 -183 437 26
50 169 -96 327 -273 294z"/>
<path d="M4075 1031 c-130 -79 -125 -253 8 -316 183 -87 344 154 195 292 -49
46 -148 58 -203 24z"/>
<path d="M3062 963 c-149 -98 -82 -320 98 -328 36 -1 102 29 129 61 71 80 60
196 -25 261 -29 21 -50 28 -98 31 -53 3 -66 0 -104 -25z"/>
<path d="M2240 962 c-40 -6 -106 -58 -126 -99 -27 -57 -24 -132 8 -181 40 -60
91 -87 161 -86 47 1 66 7 99 30 165 116 59 366 -142 336z"/>
<path d="M4507 890 c-92 -28 -151 -134 -126 -224 45 -158 255 -187 341 -46 85
138 -58 317 -215 270z"/>
<path d="M5040 849 c-41 -17 -89 -58 -117 -102 -23 -36 -27 -53 -27 -117 -1
-52 4 -85 16 -106 73 -134 253 -169 364 -71 126 109 99 314 -50 383 -54 25
-139 31 -186 13z"/>
<path d="M3427 696 c-171 -50 -185 -282 -20 -351 117 -49 254 44 253 172 -1
119 -121 211 -233 179z"/>
<path d="M2538 540 c-114 -39 -179 -171 -142 -293 24 -82 123 -157 209 -157
82 0 125 17 177 70 173 179 -7 459 -244 380z"/>
<path d="M3900 459 c-97 -30 -165 -122 -163 -224 1 -70 16 -110 61 -159 49
-54 87 -70 167 -70 103 -1 169 40 211 129 53 112 14 239 -92 301 -49 29 -131
39 -184 23z"/>
</g>
</svg>
